<svg width="50" height="50" viewBox="0 0 50 50" fill="none" xmlns="http://www.w3.org/2000/svg">
<rect x="0.5" y="0.5" width="49" height="49" rx="4.5" fill="white" stroke="#0033A1"/>
<path d="M10.6262 15.5755C14.7436 19.0625 21.9683 25.1972 24.0918 27.11C24.3768 27.3681 24.6826 27.4994 25 27.4994C25.3167 27.4994 25.6219 27.3694 25.9063 27.1124C28.0316 25.1978 35.2563 19.0625 39.3738 15.5755C39.6301 15.3589 39.6692 14.978 39.4617 14.7131C38.9819 14.101 38.2666 13.75 37.4999 13.75H12.5C11.7334 13.75 11.018 14.101 10.5383 14.7132C10.3308 14.978 10.3699 15.3589 10.6262 15.5755Z" fill="#0033A1"/>
<path d="M39.6375 17.4652C39.4159 17.3621 39.1553 17.398 38.971 17.5555C34.4049 21.4264 28.5773 26.388 26.7438 28.0401C25.7147 28.9691 24.2864 28.9691 23.255 28.0389C21.3006 26.278 14.7564 20.7147 11.029 17.5555C10.8435 17.398 10.5822 17.3632 10.3625 17.4651C10.1416 17.5677 10 17.7887 10 18.0322V33.75C10 35.1288 11.1212 36.25 12.5 36.25H37.5C38.8788 36.25 40 35.1288 40 33.75V18.0322C40 17.7887 39.8584 17.5671 39.6375 17.4652Z" fill="#0033A1"/>
</svg>
