<svg width="21" height="22" viewBox="0 0 21 22" fill="none" xmlns="http://www.w3.org/2000/svg">
<path d="M19.5496 7.37582L17.7213 4.21414C17.5196 3.84246 17.0613 3.67414 16.6413 3.82496L14.5755 4.65496C14.1821 4.37246 13.7696 4.13246 13.3438 3.93996L13.0296 1.75C12.9771 1.3225 12.6055 1 12.1671 1H8.50041C8.06209 1 7.69123 1.3225 7.63873 1.7425L7.32373 3.94082C6.91041 4.12914 6.50541 4.365 6.09455 4.65664L4.02295 3.82418C3.61713 3.66668 3.15545 3.83336 2.95045 4.20586L1.11959 7.37332C0.899592 7.74664 0.990412 8.23082 1.33209 8.50082L3.08209 9.86914C3.05541 10.1333 3.04209 10.3641 3.04209 10.5833C3.04209 10.8025 3.05541 11.0333 3.08291 11.2966L1.33041 12.6666C0.996232 12.9308 0.904592 13.3991 1.11709 13.7908L2.94541 16.9533C3.14873 17.3241 3.60541 17.4941 4.02623 17.3416L6.09205 16.5116C6.48537 16.7941 6.89787 17.0341 7.32373 17.2266L7.63791 19.4175C7.69123 19.8441 8.06291 20.1666 8.50041 20.1666H11.3721C11.5279 20.1666 11.6704 20.08 11.7404 19.945C11.8121 19.8075 11.8012 19.6416 11.7129 19.5141C11.0746 18.6008 10.7379 17.53 10.7379 16.4191C10.7379 15.9008 10.8137 15.3816 10.9637 14.8758C11.0021 14.7458 10.9754 14.605 10.8912 14.4991C10.8071 14.3933 10.6779 14.3366 10.5421 14.3408C10.4971 14.3433 10.4529 14.3491 10.3396 14.3633C8.26705 14.3633 6.58123 12.6775 6.58123 10.605C6.58123 8.53168 8.26705 6.84582 10.3396 6.84582C12.4121 6.84582 14.0979 8.53164 14.0904 10.6733C14.0846 10.7175 14.0787 10.7616 14.0762 10.8066C14.0695 10.9416 14.1287 11.0716 14.2345 11.1558C14.3412 11.24 14.482 11.265 14.6112 11.2283C15.422 10.9866 16.2212 10.9283 17.1262 11.0933C17.237 11.1133 17.3587 11.0633 17.452 10.9941C17.5453 10.925 17.6062 10.7966 17.6187 10.6816C17.6204 10.6666 17.6245 10.5991 17.6245 10.5841C17.6245 10.325 17.6062 10.08 17.5845 9.86996L19.3363 8.5C19.6705 8.23668 19.763 7.76832 19.5496 7.37582ZM16.8896 9.35668C16.7746 9.44668 16.7146 9.59168 16.7329 9.73668C16.7504 9.87668 16.7687 10.0334 16.7804 10.2C16.1437 10.1325 15.5337 10.1675 14.9237 10.2908C14.7629 7.90332 12.7696 6.01 10.3421 6.01C7.81037 6.01 5.75037 8.07 5.75037 10.6025C5.75037 13.0308 7.64369 15.0242 10.0312 15.1842C9.94869 15.5917 9.90701 16.0042 9.90701 16.4167C9.90701 17.4392 10.1545 18.4325 10.627 19.3267L8.46451 19.3067L8.11619 16.8775C8.09451 16.7308 7.99787 16.6067 7.86119 16.5508C7.35369 16.3433 6.86537 16.0591 6.40787 15.7075C6.33369 15.65 6.24369 15.6208 6.15369 15.6208C6.10119 15.6208 6.04869 15.6308 5.99869 15.6508L3.67287 16.5441L1.84537 13.3225L3.77955 11.81C3.89455 11.72 3.95455 11.575 3.93623 11.43C3.89455 11.0983 3.87541 10.8291 3.87541 10.5833C3.87541 10.3374 3.89459 10.0683 3.93623 9.7366C3.95455 9.5916 3.89455 9.4466 3.77955 9.3566L1.83955 7.7941L3.71537 4.5991L5.99787 5.51578C6.13369 5.56996 6.28787 5.54996 6.40369 5.46246C6.89537 5.09328 7.37201 4.81664 7.86037 4.61664C7.99705 4.55996 8.09455 4.43664 8.11537 4.28996L8.50037 1.83328L12.2029 1.86078L12.5512 4.28996C12.5729 4.43664 12.6695 4.56078 12.8062 4.61664C13.3129 4.82414 13.802 5.10746 14.2595 5.45996C14.3753 5.54996 14.5312 5.57078 14.6687 5.51578L16.9945 4.62328L18.8237 7.8441L16.8896 9.35668Z" fill="white" stroke="white" stroke-width="0.5"/>
<path d="M20.3095 15.0658C19.997 13.8158 18.5937 11.8333 16.1553 11.8333C13.6278 11.8333 11.572 13.8891 11.572 16.4166C11.572 18.9441 13.6279 20.9999 16.1554 20.9999C16.3862 20.9999 16.5721 20.8133 16.5721 20.5833C16.5721 20.3533 16.3854 20.1666 16.1554 20.1666C14.0879 20.1666 12.4054 18.4841 12.4054 16.4166C12.4054 14.3491 14.0879 12.6666 16.1554 12.6666C18.1929 12.6666 19.2896 14.4191 19.5012 15.2674C19.5562 15.4907 19.7837 15.6266 20.0062 15.5707C20.2295 15.5149 20.3654 15.2891 20.3095 15.0658Z" fill="white" stroke="white" stroke-width="0.5"/>
<path d="M20.3221 12.6667C20.0921 12.6667 19.9054 12.8534 19.9054 13.0834V15.1667H17.8221C17.5921 15.1667 17.4054 15.3534 17.4054 15.5834C17.4054 15.8134 17.5921 16.0001 17.8221 16.0001H20.3221C20.5529 16.0001 20.7388 15.8134 20.7388 15.5834V13.0834C20.7388 12.8534 20.5521 12.6667 20.3221 12.6667Z" fill="white" stroke="white" stroke-width="0.5"/>
</svg>
