<svg width="50" height="50" viewBox="0 0 50 50" fill="none" xmlns="http://www.w3.org/2000/svg">
<rect x="0.5" y="0.5" width="49" height="49" rx="4.5" fill="#0033A1" stroke="#0033A1"/>
<path d="M35.625 21.25H33.75V18.75C33.75 13.9252 29.8248 10 25 10C20.1752 10 16.25 13.9252 16.25 18.75V21.25H14.375C14.0296 21.25 13.75 21.5296 13.75 21.875V37.5C13.75 38.8788 14.8712 40 16.25 40H33.75C35.1288 40 36.25 38.8788 36.25 37.5V21.875C36.25 21.5296 35.9704 21.25 35.625 21.25ZM26.8714 34.306C26.8909 34.4824 26.8342 34.6594 26.7157 34.7919C26.5973 34.9243 26.4276 35 26.25 35H23.75C23.5724 35 23.4027 34.9243 23.2843 34.7919C23.1659 34.6595 23.1091 34.4825 23.1287 34.306L23.523 30.7605C22.8827 30.2948 22.5 29.5581 22.5 28.75C22.5 27.3712 23.6212 26.25 25.0001 26.25C26.3789 26.25 27.5001 27.3712 27.5001 28.75C27.5001 29.5581 27.1174 30.2948 26.4771 30.7605L26.8714 34.306ZM30 21.25H20V18.75C20 15.993 22.243 13.75 25 13.75C27.757 13.75 30 15.993 30 18.75V21.25V21.25Z" fill="white"/>
</svg>
